<?xml version="1.0" encoding="utf-8"?>
<!-- Generator: Adobe Illustrator 16.0.0, SVG Export Plug-In . SVG Version: 6.00 Build 0)  -->
<!DOCTYPE svg PUBLIC "-//W3C//DTD SVG 1.1//EN" "http://www.w3.org/Graphics/SVG/1.1/DTD/svg11.dtd">
<svg version="1.1" id="Layer_1" xmlns="http://www.w3.org/2000/svg" xmlns:xlink="http://www.w3.org/1999/xlink" x="0px" y="0px"
	 width="1024px" height="1024px" viewBox="0 0 1024 1024" enable-background="new 0 0 1024 1024" xml:space="preserve">
<g>
	<path fill-rule="evenodd" clip-rule="evenodd" fill="#FEFEFE" stroke="#000000" stroke-width="5" stroke-miterlimit="10" d="
		M109.31,93.43C110.89,88.27,110.51,98.46,109.31,93.43L109.31,93.43z"/>
	<path fill-rule="evenodd" clip-rule="evenodd" fill="#FEFEFE" stroke="#000000" stroke-width="5" stroke-miterlimit="10" d="
		M468.76,579.37c-29.95,22.84-54.69,54.99-80.84,81.979c-27.31,28.2-54.9,55.99-82.53,83.9c-24.19,24.43-49.83,48.52-72.28,74.37
		c-11.59,13.34-25.55,24.29-38.7,35.979c-8.2,7.29-27.21,33.45-38.4,35.771c-0.04,0.02-0.09,0.03-0.13,0.03
		c-0.06,0.02-0.13,0.029-0.21,0.04c-0.07,0.01-0.14,0.029-0.21,0.04c-0.12,0.01-0.25,0.029-0.39,0.039
		c11.09-11.51,21.48-25.569,30.84-38.529c12.01-16.641,28.82-30.101,40.49-46.44c10.14-14.18,25.49-26.72,37.73-39.229
		c16.08-16.431,32.34-32.69,48.34-49.221c27.13-28.04,54.85-55.479,81.72-83.77c14.7-15.46,30.26-30.09,45-45.521
		c7.25-7.59,15.31-14.659,21.72-22.97C464.67,567.86,474.65,574.88,468.76,579.37z"/>
	<path fill-rule="evenodd" clip-rule="evenodd" fill="#FEFEFE" stroke="#000000" stroke-width="5" stroke-miterlimit="10" d="
		M169.81,146.01c-3.9,4.35-8.77,7.73-12.2,12.52c-3.66,5.13-19.75,25.24-25.66,26.74c-2.14,0.54-8.26-8.45-9.43-9.74
		c-2.61-2.87,5.83-8.78,6.12-9.06c11.07-10.91,22.62-25.45,35.1-34.56c0.1-0.08,0.2-0.15,0.3-0.22
		C168.98,136.96,175.91,139.21,169.81,146.01z"/>
	<path fill-rule="evenodd" clip-rule="evenodd" fill="#FEFEFE" stroke="#000000" stroke-width="5" stroke-miterlimit="10" d="
		M196.36,180.38c-14.96,12.8-26.34,29.66-41.28,42.38c-0.12-0.11-0.25-0.22-0.37-0.33c-8.08-7.08-9.51-5.16-6.22-13.25
		c2.7-6.64,11.29-12.48,16.16-17.77c3.02-3.28,36.17-34.61,36.17-35.6C212.01,167.62,210.02,168.68,196.36,180.38z"/>
	<path fill-rule="evenodd" clip-rule="evenodd" fill="#FEFEFE" stroke="#000000" stroke-width="5" stroke-miterlimit="10" d="
		M221.34,211.39c-11.9,11.81-27.76,35.83-42.6,42.73c-5.12-5.16-13.37-9.21-5.85-15.74c7.9-6.86,14.81-13.85,21.82-21.62
		c3.79-4.21,30.9-38.37,35.26-36.33C245.49,187.68,229,203.79,221.34,211.39z"/>
	<path fill-rule="evenodd" clip-rule="evenodd" fill="#FEFEFE" stroke="#000000" stroke-width="5" stroke-miterlimit="10" d="
		M263.88,224.82c-9.44,10.94-18.99,20.59-29.14,30.86c-8.15,8.25-15.59,20.41-25.2,26.81c-8.97,5.97-5.26-3.12-14.51-6.17
		c21.25-23.23,47.24-44.22,66.03-69.47C270.72,215.44,272.56,214.79,263.88,224.82z"/>
	<path fill-rule="evenodd" clip-rule="evenodd" fill="#FEFEFE" stroke="#000000" stroke-width="5" stroke-miterlimit="10" d="
		M442.62,143.4c-12.44,3.43-10.9-0.35-20.8,8.54c-8.99,8.08-17.81,15.76-26.34,24.41c-34.82,35.31-70.44,69.78-105.29,105.17
		c-29.37,29.81-57.24,61.8-88.42,89.75c-18.98,17.01-35.22,37.42-53.98,54.85c-11.74,10.9-3.65,11-7.36,23.05
		c-2.35,7.61-9.74,12.46-17.29,12.53H123c-19.99,0-19.29-30.54-0.59-31.35c11.98-0.52,12.13,0.82,20.78-8.12
		c5.82-6.01,13.57-15.53,20.59-19.78c6.05-3.65,12-13.39,17.07-18.45c8.36-8.35,16.79-16.06,23.2-25.9
		c5.37-8.25,18.11-16.45,25.23-23.94c9.69-10.21,20.28-19.43,29.71-29.9c31.25-34.66,65.49-68.84,99.3-100.85
		c17.57-16.65,36.89-32.32,52.68-50.88c5.09-5.99,15.57-12.42,9.39-20.82c-4.21-5.72,8.53-15.72,11.83-18.41
		C442.66,104.79,466.11,136.91,442.62,143.4z"/>
	<path fill-rule="evenodd" clip-rule="evenodd" fill="#FEFEFE" stroke="#000000" stroke-width="5" stroke-miterlimit="10" d="
		M723.79,316.46c0,0,0,0,0,0.01c-0.82,8.55-30.08,31.72-35.81,37.97c-14.75,16.08-30.74,30.89-46.12,46.36
		c-14.891,14.99-28.67,30.92-43.971,45.47c-7.989,7.6-14.89,16.17-22.8,23.85c-8.89,8.63-11.75,17.43-21.34,7.72
		c-5.48-5.56,70.56-79.71,80.97-89.23c15.95-14.59,30.4-31.34,45.78-46.72c8.56-8.55,17.13-17.09,25.68-25.66
		c9.49-9.53,9.4-9.4,17.601-0.52c0.02,0.13,0.029,0.26,0.029,0.4C723.83,316.28,723.82,316.39,723.79,316.46z"/>
	<path fill-rule="evenodd" clip-rule="evenodd" fill="#FEFEFE" stroke="#000000" stroke-width="5" stroke-miterlimit="10" d="
		M826.33,276c-0.09,0.26-0.18,0.47-0.25,0.65c-0.01,0.02-0.021,0.04-0.021,0.05c-0.02,0.06-0.05,0.11-0.079,0.17
		c-0.021,0.04-0.04,0.09-0.061,0.13c-8.8,20.62-38.1-23.71-45.76-31.78c-8.09-8.53-16.24-16.77-24.94-24.66
		c-4.359-3.95,6.59-14.2,7.9-13.5c11.11,5.86,24.27,25.9,32.55,35.66C805.39,254.16,818.85,262.93,826.33,276z"/>
	<path fill-rule="evenodd" clip-rule="evenodd" fill="#FEFEFE" stroke="#000000" stroke-width="5" stroke-miterlimit="10" d="
		M885.37,447.68c-0.03,0.42-0.061,0.86-0.09,1.1c0.01-0.22,0.04-0.65,0.1-1.39c0-0.07,0-0.14,0.01-0.22v-0.01
		c0-0.08,0.011-0.17,0.011-0.26c0.01-0.1,0.02-0.17,0.02-0.22c1.44-17.65-15.729-24.59-26.42-37.21
		c-9.14-10.81-19.02-21.39-29.16-31.61c-4.6-4.65-9.26-9.22-13.93-13.71c-33.53-32.25-62.95-70.5-98.021-100.86
		c-35.01-30.31-66.359-65.2-99.25-97.7c-6.779-6.71-13.979-13.5-21.77-19.06c-6.08-4.34-14.19-0.88-19.89-6.15
		c-17.16-15.83,14.859-39.63,24.75-14.86c2.09,5.24-4.69,12.91-0.091,16.38c5.86,4.4,13.07,11.1,17.681,16.59
		c16.239,19.36,36.27,35.36,54.08,53.22c30.859,30.95,63.04,60.99,92.159,93.51c21.23,23.7,43.54,47.58,66.41,70.53
		c11.84,11.9,23.84,23.55,35.91,34.8c6.54,6.1,13.42,11.98,18.66,19.32c5.72,8.01,18.16-2.09,25.95,6.89
		C931.53,458.71,884.73,472.51,885.37,447.68z"/>
	<path fill-rule="evenodd" clip-rule="evenodd" fill="#FEFEFE" stroke="#000000" stroke-width="5" stroke-miterlimit="10" d="
		M844.51,253.38c-0.24-0.25-0.46-0.49-0.68-0.73c-0.2-0.22-0.4-0.43-0.58-0.63c-12.97-13.85-25.88-27.73-39.06-41.37
		c-5.271-5.45-10.5-10.93-15.7-16.44c-6-6.37,5.35-7.65,6.35-12.88c7.54,15.46,28.641,28.15,39.5,41.84
		c4.96,6.26,11.12,10.43,16.51,16.14C857.38,246.21,848.81,248.34,844.51,253.38z"/>
	<path fill-rule="evenodd" clip-rule="evenodd" fill="#FEFEFE" stroke="#000000" stroke-width="5" stroke-miterlimit="10" d="
		M891.66,184.35c-5.641-1.21-20.57-21.13-25.391-25.85c-4.869-4.78-9.22-10.1-13.819-15.13c-2.72-2.96,6.88-8.67,8.05-11.52
		c0.08,0.09,0.16,0.18,0.24,0.27c9.439,10.38,19.14,20.42,28.95,30.45c-0.101-0.11,11.359,11.03,11.359,10.39
		C901.34,175.72,894.95,185.04,891.66,184.35z"/>
	<path fill-rule="evenodd" clip-rule="evenodd" fill="#FEFEFE" stroke="#000000" stroke-width="5" stroke-miterlimit="10" d="
		M875.05,900.31c-0.03,0.011-0.06,0.011-0.08,0.011c-0.02,0.01-0.04,0.01-0.05,0.01c-3.05,0.16-22.47-22.68-25.84-25.47
		c-11.311-9.351-20.97-20.37-32.45-29.65c-24.689-19.99-46.649-46.67-69.36-69.46c-23.659-23.72-47.14-47.94-70.199-72.24
		c-16.261-17.14-34.641-43.18-53.94-56.31c-22.729-15.44-38.05-40.67-57.79-59.28c-20.87-19.67-44.03-40.67-62.03-62.49
		c-17.62-21.35-39.79-38.85-58.88-58.85c-23.91-25.06-47.11-51.79-72.94-74.9c-21.36-19.12-41.62-41.54-60.91-62.73
		c-1.12-1.22-13.51-11.29-11.75-13.15c0.61-0.65,9-10.51,9.92-9.81c10.13,7.76,17.85,18.98,26.91,28.05
		c49.91,49.92,98.81,100.71,148.29,151c46.75,47.52,93.88,94.74,140.29,142.67c19.85,20.5,39.149,42.46,60.439,61.68
		c22,19.87,46.471,43.78,64.95,67.061c18.12,22.81,43.46,50.63,66.601,68.18c11.56,8.771,18.68,24.46,27.97,35.45
		c8.81,10.42,22.46,23.02,28.95,35.89l0.01,0.011c0.26,0.26,0.84,1.439,1.88,4.3C875.04,900.29,875.05,900.3,875.05,900.31z"/>
	<path fill-rule="evenodd" clip-rule="evenodd" fill="#FEFEFE" stroke="#000000" stroke-width="5" stroke-miterlimit="10" d="
		M878.87,212.79c-0.05,0.07-0.09,0.13-0.15,0.2c-8.489,12.19-13.399,5.94-22.229-3.78c-7.74-8.52-16.23-16.31-24.41-24.4
		c-2.62-2.59-18.08-16.55-17.95-19.46c0.09-1.77,8.87-10,9.74-9.65c3.96,1.62,10.62,11.45,14.06,14.67
		c14.11,13.25,27.761,28.04,40.86,42.34C878.82,212.74,878.85,212.76,878.87,212.79z"/>
	<path fill-rule="evenodd" clip-rule="evenodd" fill="#FEFEFE" stroke="#000000" stroke-width="5" stroke-miterlimit="10" d="
		M946.07,966.35c-4.09,5.33-9.59,8.23-15.971,9.641c-0.6,0.14-1.21,0.26-1.83,0.37c8.971,1.3,16.711-3.19,18.23-10.57
		C946.36,965.98,946.22,966.17,946.07,966.35z"/>
	<path fill-rule="evenodd" clip-rule="evenodd" fill="#FEFEFE" stroke="#000000" stroke-width="5" stroke-miterlimit="10" d="
		M940.45,120.07h-0.01c-0.19,0.09-1.07,0.17-3,0.2c-4.801-0.59-5.341-0.83-4.23-0.86C934.97,119.34,940.93,119.78,940.45,120.07z"/>
	<path fill-rule="evenodd" clip-rule="evenodd" fill="#FEFEFE" stroke="#000000" stroke-width="5" stroke-miterlimit="10" d="
		M977.59,96.36C977.49,88.03,979.28,105.58,977.59,96.36L977.59,96.36z"/>
	<path fill-rule="evenodd" clip-rule="evenodd" stroke="#000000" stroke-width="5" stroke-miterlimit="10" d="M1006.11,68.75
		C982.67,13.7,907.24-2.29,874.09,54.33c-7.27,12.42-13.45,30.63-12.149,45.24c1.489,16.8-6.591,12.43-17.75,22
		c-4.33,3.71-5.94,9.16-10.891,12.4c-4.84,3.17-10.439,3.25-14.96,7.24c-4.07,3.6-6.12,9.5-10.729,12.46
		c-5.811,3.73-9.74-0.13-13.38,7.3c-5.25,10.7-13.221,6.12-21.25,16.01c-7.101,8.73-15.631,11.9-21.261,21.01
		c-6.399,10.36-18.609,16.82-27.229,25.09c-11.37,10.91-11.32,1.86-21.74-7.2c-12.61-10.96-24.15-24.03-35.86-36.24
		c-5.279-5.5-29.1-23.13-26.47-31.24c8.47-26.17-6.93-59.28-33.76-67.52c-30.08-9.24-64.391,4.55-73.95,35.58
		c-6.72,21.82,5.23,65.09,32.85,68.73c13.681,1.8,28.971-2.08,38.021,7.95c8.88,9.82,19.479,18.58,28.88,27.97
		c11.66,11.65,23.44,23.17,35.07,34.86c17.59,17.68-0.58,6.11,0.58,19.52c0.109,1.26-22.061,20.58-24.73,23.27
		c-6.22,6.28-12.939,13.69-19.67,20.23c-15.34,14.9-32.26,30.03-46.2,46.82c-14.899,17.95-34.319,36.89-52.1,51.4
		c-2.26,1.84-19.41,23.32-19.93,7.18c-0.13-3.92-21.06-20.88-25.17-24.26c-34.05-28.05-60.12-66.71-92.37-94.87
		c-10.33-9.02-19.83-20.92-31.5-29.67c-16.76-12.58-0.03-19.5,10.81-30.98c16.88-17.87,44.32-57.94,69.82-57.85
		c68.12,0.24,73.77-109.8,6.18-108.09c-28.12,0.71-56.7,14.91-59.55,46.51c-1.64,18.16,2.6,26.2-10.97,39.94
		c-12.01,12.15-24.17,24.13-36.34,36.11c-3.07,3.03-26.7,29.91-29.94,29.07c-8.85-2.31-19.1-16.8-26.25-22.56
		c-8.86-7.13-15.42-16-23.81-23.57c-3.75-3.38-7.29-10.89-11.62-13.16c-3.9-2.05-7.55,1.11-11.08-2.79
		c-8.62-9.51-17.49-17.52-27.34-26.17c-7.52-6.61-15.68-7.81-22.99-15.22c-7.33-7.44-20.85-9.08-23.85-20.27
		c-3.68-13.66,0.13-27.51-4.74-41.48C132.97,2.55,43.46,7.18,19.69,65.11c-10.95,26.69-5.03,62.9,14.47,83.95
		c9.76,10.54,22.84,19.86,37.32,22.09c4.72,0.72,29.8-2.63,31.75,1.82c10.42,23.92,31.56,41.02,42.61,63.97
		c5.35,11.09,16.56,22.74,24.89,31.76c8.68,9.41,13.57,20.22,22.93,29.02c14.79,13.9,27.66,18.15,11.73,34.68
		c-11.7,12.15-23.37,24.33-35.07,36.48c-6.19,6.42-20.65,26.86-30.9,23.68c-13.33-4.13-26.61-0.86-38.47,5.59
		C37.73,432.53,90.01,529,154.16,494.2c14.02-7.6,24.46-22.28,26.37-38.22c1.37-11.43-2.81-19.92,5.46-28.34
		c22.21-22.63,43.49-46.14,65.93-68.46c8,12.49,23.25,20.34,33.98,30.28c8.19,7.6,15.78,19.33,25.41,24.81
		c21.16,12.05,39.26,38.59,56.2,55.46c11.62,11.58,22.46,25.35,34.79,36.04c5.7,4.94,17.06,11.16,20.45,18.22
		c4.06,8.47-68.96,73.64-77.59,83c-19.35,20.96-39.37,42.04-60.84,60.89c-20.48,17.97-36.24,42.58-55.66,61.76
		c-18.22,18-34.08,38.91-49.82,59.17C142,836.22,99.71,888.1,79.77,945.84c-16.52,47.84,37.59,23.03,57.39,11.59
		c24.05-13.88,46.85-26.649,68.7-43.649c43.16-33.61,74.26-80.4,116.06-115.101c23.26-19.31,41.25-44.399,65.28-62.93
		c18.52-14.28,32.97-41.34,54.55-51.55c8.13-3.86,17.06-20.24,24.27-26.561c7.91-6.949,18.77-14.319,25.07-22.319
		c4.87-6.19,20.58-21.96,25.36-16.971c9.99,10.44-6.18,12.061-9.38,22.91c8.44,1.08,9.01-13.04,16.94-13.46
		c6.851-0.359,26.48,22.29,32.12,27.181c16.15,14.01,32.53,31.39,46.54,47.3c15.5,17.6,35.32,30.87,50.58,48.87
		c14.7,17.319,35.44,30.47,50.17,47.55c29.73,34.5,64.521,64.729,93.8,97.97c8.32,9.44,22.75,17.2,32.58,25.53
		c8.67,7.34,19.42,13.83,29.08,19.5c22.271,13.08,44.48,23.89,68.14,34.109c-7.189-3.35,4.551-0.85,3.08,0.181
		c6.381-1.41,11.881-4.311,15.971-9.641c6.43-17.67-20.09-53.56-25.37-66.46c-11.95-29.149-33.46-58.25-53.3-82.42
		C819.97,759.7,773,704.1,720.69,650.74c-23.44-23.91-44.36-48.45-68.761-71.74c-13.279-12.68-25.729-25.94-38.21-39.38
		c-3.59-3.87-17.979-12.9-9.3-18.75c5.95-4.01,10.34-9.74,15.73-14.37c25.949-22.31,51.68-49.6,74.79-75.17
		c22.52-24.92,56.34-43.99,75.619-71.1c25.23,20.4,47.181,47.12,70.19,70.02c4.43,4.41,0.16,14.88,0.59,20.34
		c0.57,7.09,2.84,13.89,6.15,20.15c4.95,9.35,11.52,18.94,21.18,23.76c65.1,32.46,120.63-60.63,56.92-96.35
		c-17.18-9.64-28.31-4.12-45.8-5.33c-7.1-0.49-25.24-24.74-30.38-29.87c-12.82-12.82-25.63-25.66-38.54-38.39
		c-6.47-6.38,16.14-23.84,20.899-28.01c10.32-9.05,16.091-21.29,25.851-31.27c7.17-7.32,15.7-19.09,20.42-28.22
		c5.7-11.02,15.57-16.91,21.39-26.86c7.221-12.37,13.88-24.72,22.2-37.01c2.811-4.15,32.63-1.2,39.7-3.5
		c10.56-3.45,22.939-12.38,30.01-20.95C1007.67,128.95,1016.6,93.42,1006.11,68.75z M109.31,93.43
		C110.89,88.27,110.51,98.46,109.31,93.43L109.31,93.43z M131.95,185.27c-2.14,0.54-8.26-8.45-9.43-9.74
		c-2.61-2.87,5.83-8.78,6.12-9.06c11.07-10.91,22.62-25.45,35.1-34.56c0.1-0.08,0.2-0.15,0.3-0.22c4.94,5.27,11.87,7.52,5.77,14.32
		c-3.9,4.35-8.77,7.73-12.2,12.52C153.95,163.66,137.86,183.77,131.95,185.27z M155.08,222.76c-0.12-0.11-0.25-0.22-0.37-0.33
		c-8.08-7.08-9.51-5.16-6.22-13.25c2.7-6.64,11.29-12.48,16.16-17.77c3.02-3.28,36.17-34.61,36.17-35.6
		c11.19,11.81,9.2,12.87-4.46,24.57C181.4,193.18,170.02,210.04,155.08,222.76z M178.74,254.12c-5.12-5.16-13.37-9.21-5.85-15.74
		c7.9-6.86,14.81-13.85,21.82-21.62c3.79-4.21,30.9-38.37,35.26-36.33c15.52,7.25-0.97,23.36-8.63,30.96
		C209.44,223.2,193.58,247.22,178.74,254.12z M209.54,282.49c-8.97,5.97-5.26-3.12-14.51-6.17c21.25-23.23,47.24-44.22,66.03-69.47
		c9.66,8.59,11.5,7.94,2.82,17.97c-9.44,10.94-18.99,20.59-29.14,30.86C226.59,263.93,219.15,276.09,209.54,282.49z M201.77,371.27
		c-18.98,17.01-35.22,37.42-53.98,54.85c-11.74,10.9-3.65,11-7.36,23.05c-2.35,7.61-9.74,12.46-17.29,12.53H123
		c-19.99,0-19.29-30.54-0.59-31.35c11.98-0.52,12.13,0.82,20.78-8.12c5.82-6.01,13.57-15.53,20.59-19.78
		c6.05-3.65,12-13.39,17.07-18.45c8.36-8.35,16.79-16.06,23.2-25.9c5.37-8.25,18.11-16.45,25.23-23.94
		c9.69-10.21,20.28-19.43,29.71-29.9c31.25-34.66,65.49-68.84,99.3-100.85c17.57-16.65,36.89-32.32,52.68-50.88
		c5.09-5.99,15.57-12.42,9.39-20.82c-4.21-5.72,8.53-15.72,11.83-18.41c10.47-8.51,33.92,23.61,10.43,30.1
		c-12.44,3.43-10.9-0.35-20.8,8.54c-8.99,8.08-17.81,15.76-26.34,24.41c-34.82,35.31-70.44,69.78-105.29,105.17
		C260.82,311.33,232.95,343.32,201.77,371.27z M468.76,579.37c-29.95,22.84-54.69,54.99-80.84,81.979
		c-27.31,28.2-54.9,55.99-82.53,83.9c-24.19,24.43-49.83,48.52-72.28,74.37c-11.59,13.34-25.55,24.29-38.7,35.979
		c-8.2,7.29-27.21,33.45-38.4,35.771c-0.04,0.02-0.09,0.03-0.13,0.03c-0.06,0.02-0.13,0.029-0.21,0.04
		c-0.07,0.01-0.14,0.029-0.21,0.04c-0.12,0.01-0.25,0.029-0.39,0.039c11.09-11.51,21.48-25.569,30.84-38.529
		c12.01-16.641,28.82-30.101,40.49-46.44c10.14-14.18,25.49-26.72,37.73-39.229c16.08-16.431,32.34-32.69,48.34-49.221
		c27.13-28.04,54.85-55.479,81.72-83.77c14.7-15.46,30.26-30.09,45-45.521c7.25-7.59,15.31-14.659,21.72-22.97
		C464.67,567.86,474.65,574.88,468.76,579.37z M624.24,627.71c19.85,20.5,39.149,42.46,60.439,61.68
		c22,19.87,46.471,43.78,64.95,67.061c18.12,22.81,43.46,50.63,66.601,68.18c11.56,8.771,18.68,24.46,27.97,35.45
		c8.81,10.42,22.46,23.02,28.95,35.89l0.01,0.011c0.26,0.26,0.84,1.439,1.88,4.3c0,0.01,0.01,0.02,0.01,0.029
		c-0.03,0.011-0.06,0.011-0.08,0.011c-0.02,0.01-0.04,0.01-0.05,0.01c-3.05,0.16-22.47-22.68-25.84-25.47
		c-11.311-9.351-20.97-20.37-32.45-29.65c-24.689-19.99-46.649-46.67-69.36-69.46c-23.659-23.72-47.14-47.94-70.199-72.24
		c-16.261-17.14-34.641-43.18-53.94-56.31c-22.729-15.44-38.05-40.67-57.79-59.28c-20.87-19.67-44.03-40.67-62.03-62.49
		c-17.62-21.35-39.79-38.85-58.88-58.85c-23.91-25.06-47.11-51.79-72.94-74.9c-21.36-19.12-41.62-41.54-60.91-62.73
		c-1.12-1.22-13.51-11.29-11.75-13.15c0.61-0.65,9-10.51,9.92-9.81c10.13,7.76,17.85,18.98,26.91,28.05
		c49.91,49.92,98.81,100.71,148.29,151C530.7,532.56,577.83,579.78,624.24,627.71z M723.79,316.46c0,0,0,0,0,0.01
		c-0.82,8.55-30.08,31.72-35.81,37.97c-14.75,16.08-30.74,30.89-46.12,46.36c-14.891,14.99-28.67,30.92-43.971,45.47
		c-7.989,7.6-14.89,16.17-22.8,23.85c-8.89,8.63-11.75,17.43-21.34,7.72c-5.48-5.56,70.56-79.71,80.97-89.23
		c15.95-14.59,30.4-31.34,45.78-46.72c8.56-8.55,17.13-17.09,25.68-25.66c9.49-9.53,9.4-9.4,17.601-0.52
		c0.02,0.13,0.029,0.26,0.029,0.4C723.83,316.28,723.82,316.39,723.79,316.46z M831.97,375.75c11.84,11.9,23.84,23.55,35.91,34.8
		c6.54,6.1,13.42,11.98,18.66,19.32c5.72,8.01,18.16-2.09,25.95,6.89c19.04,21.95-27.76,35.75-27.12,10.92
		c-0.03,0.42-0.061,0.86-0.09,1.1c0.01-0.22,0.04-0.65,0.1-1.39c0-0.07,0-0.14,0.01-0.22v-0.01c0-0.08,0.011-0.17,0.011-0.26
		c0.01-0.1,0.02-0.17,0.02-0.22c1.44-17.65-15.729-24.59-26.42-37.21c-9.14-10.81-19.02-21.39-29.16-31.61
		c-4.6-4.65-9.26-9.22-13.93-13.71c-33.53-32.25-62.95-70.5-98.021-100.86c-35.01-30.31-66.359-65.2-99.25-97.7
		c-6.779-6.71-13.979-13.5-21.77-19.06c-6.08-4.34-14.19-0.88-19.89-6.15c-17.16-15.83,14.859-39.63,24.75-14.86
		c2.09,5.24-4.69,12.91-0.091,16.38c5.86,4.4,13.07,11.1,17.681,16.59c16.239,19.36,36.27,35.36,54.08,53.22
		c30.859,30.95,63.04,60.99,92.159,93.51C786.79,328.92,809.1,352.8,831.97,375.75z M826.08,276.65
		c-0.01,0.02-0.021,0.04-0.021,0.05c-0.02,0.06-0.05,0.11-0.079,0.17c-0.021,0.04-0.04,0.09-0.061,0.13
		c-8.8,20.62-38.1-23.71-45.76-31.78c-8.09-8.53-16.24-16.77-24.94-24.66c-4.359-3.95,6.59-14.2,7.9-13.5
		c11.11,5.86,24.27,25.9,32.55,35.66c9.72,11.44,23.18,20.21,30.66,33.28C826.24,276.26,826.15,276.47,826.08,276.65z
		 M844.51,253.38c-0.24-0.25-0.46-0.49-0.68-0.73c-0.2-0.22-0.4-0.43-0.58-0.63c-12.97-13.85-25.88-27.73-39.06-41.37
		c-5.271-5.45-10.5-10.93-15.7-16.44c-6-6.37,5.35-7.65,6.35-12.88c7.54,15.46,28.641,28.15,39.5,41.84
		c4.96,6.26,11.12,10.43,16.51,16.14C857.38,246.21,848.81,248.34,844.51,253.38z M878.72,212.99
		c-8.489,12.19-13.399,5.94-22.229-3.78c-7.74-8.52-16.23-16.31-24.41-24.4c-2.62-2.59-18.08-16.55-17.95-19.46
		c0.09-1.77,8.87-10,9.74-9.65c3.96,1.62,10.62,11.45,14.06,14.67c14.11,13.25,27.761,28.04,40.86,42.34
		c0.03,0.03,0.06,0.05,0.08,0.08C878.82,212.86,878.78,212.92,878.72,212.99z M891.66,184.35c-5.641-1.21-20.57-21.13-25.391-25.85
		c-4.869-4.78-9.22-10.1-13.819-15.13c-2.72-2.96,6.88-8.67,8.05-11.52c0.08,0.09,0.16,0.18,0.24,0.27
		c9.439,10.38,19.14,20.42,28.95,30.45c-0.101-0.11,11.359,11.03,11.359,10.39C901.34,175.72,894.95,185.04,891.66,184.35z
		 M940.45,120.07h-0.01c-0.19,0.09-1.07,0.17-3,0.2c-4.801-0.59-5.341-0.83-4.23-0.86C934.97,119.34,940.93,119.78,940.45,120.07z
		 M977.59,96.36C977.49,88.03,979.28,105.58,977.59,96.36L977.59,96.36z"/>
	<path fill-rule="evenodd" clip-rule="evenodd" stroke="#000000" stroke-width="5" stroke-miterlimit="10" d="M109.31,93.43
		C110.89,88.27,110.51,98.46,109.31,93.43L109.31,93.43z"/>
	<path fill-rule="evenodd" clip-rule="evenodd" stroke="#000000" stroke-width="5" stroke-miterlimit="10" d="M468.76,579.37
		c-29.95,22.84-54.69,54.99-80.84,81.979c-27.31,28.2-54.9,55.99-82.53,83.9c-24.19,24.43-49.83,48.52-72.28,74.37
		c-11.59,13.34-25.55,24.29-38.7,35.979c-8.2,7.29-27.21,33.45-38.4,35.771c-0.04,0.02-0.09,0.03-0.13,0.03
		c-0.06,0.02-0.13,0.029-0.21,0.04c-0.07,0.01-0.14,0.029-0.21,0.04c-0.12,0.01-0.25,0.029-0.39,0.039
		c11.09-11.51,21.48-25.569,30.84-38.529c12.01-16.641,28.82-30.101,40.49-46.44c10.14-14.18,25.49-26.72,37.73-39.229
		c16.08-16.431,32.34-32.69,48.34-49.221c27.13-28.04,54.85-55.479,81.72-83.77c14.7-15.46,30.26-30.09,45-45.521
		c7.25-7.59,15.31-14.659,21.72-22.97C464.67,567.86,474.65,574.88,468.76,579.37z"/>
	<path fill-rule="evenodd" clip-rule="evenodd" stroke="#000000" stroke-width="5" stroke-miterlimit="10" d="M169.81,146.01
		c-3.9,4.35-8.77,7.73-12.2,12.52c-3.66,5.13-19.75,25.24-25.66,26.74c-2.14,0.54-8.26-8.45-9.43-9.74
		c-2.61-2.87,5.83-8.78,6.12-9.06c11.07-10.91,22.62-25.45,35.1-34.56c0.1-0.08,0.2-0.15,0.3-0.22
		C168.98,136.96,175.91,139.21,169.81,146.01z"/>
	<path fill-rule="evenodd" clip-rule="evenodd" stroke="#000000" stroke-width="5" stroke-miterlimit="10" d="M196.36,180.38
		c-14.96,12.8-26.34,29.66-41.28,42.38c-0.12-0.11-0.25-0.22-0.37-0.33c-8.08-7.08-9.51-5.16-6.22-13.25
		c2.7-6.64,11.29-12.48,16.16-17.77c3.02-3.28,36.17-34.61,36.17-35.6C212.01,167.62,210.02,168.68,196.36,180.38z"/>
	<path fill-rule="evenodd" clip-rule="evenodd" stroke="#000000" stroke-width="5" stroke-miterlimit="10" d="M221.34,211.39
		c-11.9,11.81-27.76,35.83-42.6,42.73c-5.12-5.16-13.37-9.21-5.85-15.74c7.9-6.86,14.81-13.85,21.82-21.62
		c3.79-4.21,30.9-38.37,35.26-36.33C245.49,187.68,229,203.79,221.34,211.39z"/>
	<path fill-rule="evenodd" clip-rule="evenodd" stroke="#000000" stroke-width="5" stroke-miterlimit="10" d="M263.88,224.82
		c-9.44,10.94-18.99,20.59-29.14,30.86c-8.15,8.25-15.59,20.41-25.2,26.81c-8.97,5.97-5.26-3.12-14.51-6.17
		c21.25-23.23,47.24-44.22,66.03-69.47C270.72,215.44,272.56,214.79,263.88,224.82z"/>
	<path fill-rule="evenodd" clip-rule="evenodd" stroke="#000000" stroke-width="5" stroke-miterlimit="10" d="M442.62,143.4
		c-12.44,3.43-10.9-0.35-20.8,8.54c-8.99,8.08-17.81,15.76-26.34,24.41c-34.82,35.31-70.44,69.78-105.29,105.17
		c-29.37,29.81-57.24,61.8-88.42,89.75c-18.98,17.01-35.22,37.42-53.98,54.85c-11.74,10.9-3.65,11-7.36,23.05
		c-2.35,7.61-9.74,12.46-17.29,12.53H123c-19.99,0-19.29-30.54-0.59-31.35c11.98-0.52,12.13,0.82,20.78-8.12
		c5.82-6.01,13.57-15.53,20.59-19.78c6.05-3.65,12-13.39,17.07-18.45c8.36-8.35,16.79-16.06,23.2-25.9
		c5.37-8.25,18.11-16.45,25.23-23.94c9.69-10.21,20.28-19.43,29.71-29.9c31.25-34.66,65.49-68.84,99.3-100.85
		c17.57-16.65,36.89-32.32,52.68-50.88c5.09-5.99,15.57-12.42,9.39-20.82c-4.21-5.72,8.53-15.72,11.83-18.41
		C442.66,104.79,466.11,136.91,442.62,143.4z"/>
	<path fill-rule="evenodd" clip-rule="evenodd" stroke="#000000" stroke-width="5" stroke-miterlimit="10" d="M723.79,316.46
		c0,0,0,0,0,0.01c-0.82,8.55-30.08,31.72-35.81,37.97c-14.75,16.08-30.74,30.89-46.12,46.36c-14.891,14.99-28.67,30.92-43.971,45.47
		c-7.989,7.6-14.89,16.17-22.8,23.85c-8.89,8.63-11.75,17.43-21.34,7.72c-5.48-5.56,70.56-79.71,80.97-89.23
		c15.95-14.59,30.4-31.34,45.78-46.72c8.56-8.55,17.13-17.09,25.68-25.66c9.49-9.53,9.4-9.4,17.601-0.52
		c0.02,0.13,0.029,0.26,0.029,0.4C723.83,316.28,723.82,316.39,723.79,316.46z"/>
	<path fill-rule="evenodd" clip-rule="evenodd" stroke="#000000" stroke-width="5" stroke-miterlimit="10" d="M826.33,276
		c-0.09,0.26-0.18,0.47-0.25,0.65c-0.01,0.02-0.021,0.04-0.021,0.05c-0.02,0.06-0.05,0.11-0.079,0.17
		c-0.021,0.04-0.04,0.09-0.061,0.13c-8.8,20.62-38.1-23.71-45.76-31.78c-8.09-8.53-16.24-16.77-24.94-24.66
		c-4.359-3.95,6.59-14.2,7.9-13.5c11.11,5.86,24.27,25.9,32.55,35.66C805.39,254.16,818.85,262.93,826.33,276z"/>
	<path fill-rule="evenodd" clip-rule="evenodd" stroke="#000000" stroke-width="5" stroke-miterlimit="10" d="M844.51,253.38
		c-0.24-0.25-0.46-0.49-0.68-0.73c-0.2-0.22-0.4-0.43-0.58-0.63c-12.97-13.85-25.88-27.73-39.06-41.37
		c-5.271-5.45-10.5-10.93-15.7-16.44c-6-6.37,5.35-7.65,6.35-12.88c7.54,15.46,28.641,28.15,39.5,41.84
		c4.96,6.26,11.12,10.43,16.51,16.14C857.38,246.21,848.81,248.34,844.51,253.38z"/>
	<path fill-rule="evenodd" clip-rule="evenodd" stroke="#000000" stroke-width="5" stroke-miterlimit="10" d="M891.66,184.35
		c-5.641-1.21-20.57-21.13-25.391-25.85c-4.869-4.78-9.22-10.1-13.819-15.13c-2.72-2.96,6.88-8.67,8.05-11.52
		c0.08,0.09,0.16,0.18,0.24,0.27c9.439,10.38,19.14,20.42,28.95,30.45c-0.101-0.11,11.359,11.03,11.359,10.39
		C901.34,175.72,894.95,185.04,891.66,184.35z"/>
	<path fill-rule="evenodd" clip-rule="evenodd" stroke="#000000" stroke-width="5" stroke-miterlimit="10" d="M875.05,900.31
		c-0.03,0.011-0.06,0.011-0.08,0.011c-0.02,0.01-0.04,0.01-0.05,0.01c-3.05,0.16-22.47-22.68-25.84-25.47
		c-11.311-9.351-20.97-20.37-32.45-29.65c-24.689-19.99-46.649-46.67-69.36-69.46c-23.659-23.72-47.14-47.94-70.199-72.24
		c-16.261-17.14-34.641-43.18-53.94-56.31c-22.729-15.44-38.05-40.67-57.79-59.28c-20.87-19.67-44.03-40.67-62.03-62.49
		c-17.62-21.35-39.79-38.85-58.88-58.85c-23.91-25.06-47.11-51.79-72.94-74.9c-21.36-19.12-41.62-41.54-60.91-62.73
		c-1.12-1.22-13.51-11.29-11.75-13.15c0.61-0.65,9-10.51,9.92-9.81c10.13,7.76,17.85,18.98,26.91,28.05
		c49.91,49.92,98.81,100.71,148.29,151c46.75,47.52,93.88,94.74,140.29,142.67c19.85,20.5,39.149,42.46,60.439,61.68
		c22,19.87,46.471,43.78,64.95,67.061c18.12,22.81,43.46,50.63,66.601,68.18c11.56,8.771,18.68,24.46,27.97,35.45
		c8.81,10.42,22.46,23.02,28.95,35.89l0.01,0.011c0.26,0.26,0.84,1.439,1.88,4.3C875.04,900.29,875.05,900.3,875.05,900.31z"/>
	<path fill-rule="evenodd" clip-rule="evenodd" stroke="#000000" stroke-width="5" stroke-miterlimit="10" d="M878.87,212.79
		c-0.05,0.07-0.09,0.13-0.15,0.2c-8.489,12.19-13.399,5.94-22.229-3.78c-7.74-8.52-16.23-16.31-24.41-24.4
		c-2.62-2.59-18.08-16.55-17.95-19.46c0.09-1.77,8.87-10,9.74-9.65c3.96,1.62,10.62,11.45,14.06,14.67
		c14.11,13.25,27.761,28.04,40.86,42.34C878.82,212.74,878.85,212.76,878.87,212.79z"/>
	<path fill-rule="evenodd" clip-rule="evenodd" stroke="#000000" stroke-width="5" stroke-miterlimit="10" d="M885.37,447.68
		c-0.03,0.42-0.061,0.86-0.09,1.1c0.01-0.22,0.04-0.65,0.1-1.39c0-0.07,0-0.14,0.01-0.22v-0.01c0-0.08,0.011-0.17,0.011-0.26
		c0.01-0.1,0.02-0.17,0.02-0.22c1.44-17.65-15.729-24.59-26.42-37.21c-9.14-10.81-19.02-21.39-29.16-31.61
		c-4.6-4.65-9.26-9.22-13.93-13.71c-33.53-32.25-62.95-70.5-98.021-100.86c-35.01-30.31-66.359-65.2-99.25-97.7
		c-6.779-6.71-13.979-13.5-21.77-19.06c-6.08-4.34-14.19-0.88-19.89-6.15c-17.16-15.83,14.859-39.63,24.75-14.86
		c2.09,5.24-4.69,12.91-0.091,16.38c5.86,4.4,13.07,11.1,17.681,16.59c16.239,19.36,36.27,35.36,54.08,53.22
		c30.859,30.95,63.04,60.99,92.159,93.51c21.23,23.7,43.54,47.58,66.41,70.53c11.84,11.9,23.84,23.55,35.91,34.8
		c6.54,6.1,13.42,11.98,18.66,19.32c5.72,8.01,18.16-2.09,25.95,6.89C931.53,458.71,884.73,472.51,885.37,447.68z"/>
	<path fill-rule="evenodd" clip-rule="evenodd" stroke="#000000" stroke-width="5" stroke-miterlimit="10" d="M946.07,966.35
		c-2,5.48-7.15,9.21-17.09,9.95c0.6-0.069,0.949-0.18,1.119-0.31C936.48,974.58,941.98,971.68,946.07,966.35z"/>
	<path fill-rule="evenodd" clip-rule="evenodd" stroke="#000000" stroke-width="5" stroke-miterlimit="10" d="M940.45,120.07h-0.01
		c-0.19,0.09-1.07,0.17-3,0.2c-4.801-0.59-5.341-0.83-4.23-0.86C934.97,119.34,940.93,119.78,940.45,120.07z"/>
	<path fill-rule="evenodd" clip-rule="evenodd" stroke="#000000" stroke-width="5" stroke-miterlimit="10" d="M977.59,96.36
		C977.49,88.03,979.28,105.58,977.59,96.36L977.59,96.36z"/>
	<path fill-rule="evenodd" clip-rule="evenodd" fill="#6E6E6E" stroke="#000000" stroke-width="5" stroke-miterlimit="10" d="
		M946.5,965.79c-1.52,7.38-9.26,11.87-18.23,10.57c0.62-0.11,1.23-0.23,1.83-0.37c6.381-1.41,11.881-4.311,15.971-9.641
		C946.22,966.17,946.36,965.98,946.5,965.79z"/>
	<path fill-rule="evenodd" clip-rule="evenodd" fill="#FEFEFE" stroke="#000000" stroke-width="5" stroke-miterlimit="10" d="
		M875.04,900.28c-0.53-1.431-1.16-2.87-1.88-4.3C873.42,896.24,874,897.42,875.04,900.28z"/>
	<path fill-rule="evenodd" clip-rule="evenodd" fill="#FEFEFE" stroke="#000000" stroke-width="5" stroke-miterlimit="10" d="
		M874.92,900.33c-3.05,0.16-22.47-22.68-25.84-25.47c-11.311-9.351-20.97-20.37-32.45-29.65c-24.689-19.99-46.649-46.67-69.36-69.46
		c-23.659-23.72-47.14-47.94-70.199-72.24c-16.261-17.14-34.641-43.18-53.94-56.31c-22.729-15.44-38.05-40.67-57.79-59.28
		c-20.87-19.67-44.03-40.67-62.03-62.49c-17.62-21.35-39.79-38.85-58.88-58.85c-23.91-25.06-47.11-51.79-72.94-74.9
		c-21.36-19.12-41.62-41.54-60.91-62.73c-1.12-1.22-13.51-11.29-11.75-13.15c0.61-0.65,9-10.51,9.92-9.81
		c10.13,7.76,17.85,18.98,26.91,28.05c49.91,49.92,98.81,100.71,148.29,151c46.75,47.52,93.88,94.74,140.29,142.67
		c19.85,20.5,39.149,42.46,60.439,61.68c22,19.87,46.471,43.78,64.95,67.061c18.12,22.81,43.46,50.63,66.601,68.18
		c11.56,8.771,18.68,24.46,27.97,35.45c8.81,10.42,22.46,23.02,28.95,35.89C872.56,895.42,873.84,900.27,874.92,900.33z"/>
	<path fill-rule="evenodd" clip-rule="evenodd" fill="#FEFEFE" stroke="#000000" stroke-width="5" stroke-miterlimit="10" d="
		M468.76,579.37c-29.95,22.84-54.69,54.99-80.84,81.979c-27.31,28.2-54.9,55.99-82.53,83.9c-24.19,24.43-49.83,48.52-72.28,74.37
		c-11.59,13.34-25.55,24.29-38.7,35.979c-8.2,7.29-27.21,33.45-38.4,35.771c2.08-0.51,0.91-1.771-0.94,0.149
		c11.09-11.51,21.48-25.569,30.84-38.529c12.01-16.641,28.82-30.101,40.49-46.44c10.14-14.18,25.49-26.72,37.73-39.229
		c16.08-16.431,32.34-32.69,48.34-49.221c27.13-28.04,54.85-55.479,81.72-83.77c14.7-15.46,30.26-30.09,45-45.521
		c7.25-7.59,15.31-14.659,21.72-22.97C464.67,567.86,474.65,574.88,468.76,579.37z"/>
	<path fill-rule="evenodd" clip-rule="evenodd" fill="#FEFEFE" stroke="#000000" stroke-width="5" stroke-miterlimit="10" d="
		M442.62,143.4c-12.44,3.43-10.9-0.35-20.8,8.54c-8.99,8.08-17.81,15.76-26.34,24.41c-34.82,35.31-70.44,69.78-105.29,105.17
		c-29.37,29.81-57.24,61.8-88.42,89.75c-18.98,17.01-35.22,37.42-53.98,54.85c-11.74,10.9-3.65,11-7.36,23.05
		c-2.35,7.61-9.74,12.46-17.29,12.53H123c-19.99,0-19.29-30.54-0.59-31.35c11.98-0.52,12.13,0.82,20.78-8.12
		c5.82-6.01,13.57-15.53,20.59-19.78c6.05-3.65,12-13.39,17.07-18.45c8.36-8.35,16.79-16.06,23.2-25.9
		c5.37-8.25,18.11-16.45,25.23-23.94c9.69-10.21,20.28-19.43,29.71-29.9c31.25-34.66,65.49-68.84,99.3-100.85
		c17.57-16.65,36.89-32.32,52.68-50.88c5.09-5.99,15.57-12.42,9.39-20.82c-4.21-5.72,8.53-15.72,11.83-18.41
		C442.66,104.79,466.11,136.91,442.62,143.4z"/>
	<path fill-rule="evenodd" clip-rule="evenodd" fill="#FEFEFE" stroke="#000000" stroke-width="5" stroke-miterlimit="10" d="
		M109.31,93.43C110.89,88.27,110.51,98.46,109.31,93.43L109.31,93.43z"/>
	<path fill-rule="evenodd" clip-rule="evenodd" fill="#FEFEFE" stroke="#000000" stroke-width="5" stroke-miterlimit="10" d="
		M885.37,447.68c-0.03,0.42-0.061,0.86-0.09,1.1c0.01-0.22,0.04-0.65,0.1-1.39v0.09c0.03-0.41,0.05-0.77,0.05-0.85
		c0,0.01-0.01,0.03-0.01,0.05c1.44-17.65-15.729-24.59-26.42-37.21c-9.14-10.81-19.02-21.39-29.16-31.61
		c-4.6-4.65-9.26-9.22-13.93-13.71c-33.53-32.25-62.95-70.5-98.021-100.86c-35.01-30.31-66.359-65.2-99.25-97.7
		c-6.779-6.71-13.979-13.5-21.77-19.06c-6.08-4.34-14.19-0.88-19.89-6.15c-17.16-15.83,14.859-39.63,24.75-14.86
		c2.09,5.24-4.69,12.91-0.091,16.38c5.86,4.4,13.07,11.1,17.681,16.59c16.239,19.36,36.27,35.36,54.08,53.22
		c30.859,30.95,63.04,60.99,92.159,93.51c21.23,23.7,43.54,47.58,66.41,70.53c11.84,11.9,23.84,23.55,35.91,34.8
		c6.54,6.1,13.42,11.98,18.66,19.32c5.72,8.01,18.16-2.09,25.95,6.89C931.53,458.71,884.73,472.51,885.37,447.68z"/>
	<path fill-rule="evenodd" clip-rule="evenodd" fill="#FEFEFE" stroke="#000000" stroke-width="5" stroke-miterlimit="10" d="
		M940.45,120.07h-0.01c-0.19,0.09-1.07,0.17-3,0.2c-4.801-0.59-5.341-0.83-4.23-0.86C934.97,119.34,940.93,119.78,940.45,120.07z"/>
	<path fill-rule="evenodd" clip-rule="evenodd" fill="#FEFEFE" stroke="#000000" stroke-width="5" stroke-miterlimit="10" d="
		M977.59,96.36C977.49,88.03,979.28,105.58,977.59,96.36L977.59,96.36z"/>
	<path fill-rule="evenodd" clip-rule="evenodd" fill="#FEFEFE" stroke="#000000" stroke-width="5" stroke-miterlimit="10" d="
		M723.79,316.47c-0.82,8.55-30.08,31.72-35.81,37.97c-14.75,16.08-30.74,30.89-46.12,46.36c-14.891,14.99-28.67,30.92-43.971,45.47
		c-7.989,7.6-14.89,16.17-22.8,23.85c-8.89,8.63-11.75,17.43-21.34,7.72c-5.48-5.56,70.56-79.71,80.97-89.23
		c15.95-14.59,30.4-31.34,45.78-46.72c8.56-8.55,17.13-17.09,25.68-25.66c9.49-9.53,9.4-9.4,17.601-0.52
		C722.65,314.48,723.62,316.98,723.79,316.47z"/>
	<path fill-rule="evenodd" clip-rule="evenodd" fill="#FEFEFE" stroke="#000000" stroke-width="5" stroke-miterlimit="10" d="
		M723.79,316.46c0.01-0.12,0.02-0.24,0.02-0.35C723.83,316.28,723.82,316.39,723.79,316.46z"/>
	<path fill-rule="evenodd" clip-rule="evenodd" fill="#FEFEFE" stroke="#000000" stroke-width="5" stroke-miterlimit="10" d="
		M263.88,224.82c-9.44,10.94-18.99,20.59-29.14,30.86c-8.15,8.25-15.59,20.41-25.2,26.81c-8.97,5.97-5.26-3.12-14.51-6.17
		c21.25-23.23,47.24-44.22,66.03-69.47c-9.09,12.21,2.38,2.12,0,0C270.72,215.44,272.56,214.79,263.88,224.82z"/>
	<path fill-rule="evenodd" clip-rule="evenodd" fill="#FEFEFE" stroke="#000000" stroke-width="5" stroke-miterlimit="10" d="
		M221.34,211.39c-11.9,11.81-27.76,35.83-42.6,42.73c0.61-0.29-3.29-3.32,0,0c-5.12-5.16-13.37-9.21-5.85-15.74
		c7.9-6.86,14.81-13.85,21.82-21.62c3.79-4.21,30.9-38.37,35.26-36.33C245.49,187.68,229,203.79,221.34,211.39z"/>
	<path fill-rule="evenodd" clip-rule="evenodd" fill="#FEFEFE" stroke="#000000" stroke-width="5" stroke-miterlimit="10" d="
		M825.92,277c-8.8,20.62-38.1-23.71-45.76-31.78c-8.09-8.53-16.24-16.77-24.94-24.66c-4.359-3.95,6.59-14.2,7.9-13.5
		c11.11,5.86,24.27,25.9,32.55,35.66c9.72,11.44,23.18,20.21,30.66,33.28C825.5,274.54,825.07,278.6,825.92,277z"/>
	<path fill-rule="evenodd" clip-rule="evenodd" fill="#FEFEFE" stroke="#000000" stroke-width="5" stroke-miterlimit="10" d="
		M826.33,276c-0.09,0.26-0.18,0.47-0.25,0.65C826.17,276.44,826.25,276.22,826.33,276z"/>
	<path fill-rule="evenodd" clip-rule="evenodd" fill="#FEFEFE" stroke="#000000" stroke-width="5" stroke-miterlimit="10" d="
		M196.36,180.38c-14.96,12.8-26.34,29.66-41.28,42.38c0.44-0.38-3.12-2.84-0.37-0.33c-8.08-7.08-9.51-5.16-6.22-13.25
		c2.7-6.64,11.29-12.48,16.16-17.77c3.02-3.28,36.17-34.61,36.17-35.6C212.01,167.62,210.02,168.68,196.36,180.38z"/>
	<path fill-rule="evenodd" clip-rule="evenodd" fill="#FEFEFE" stroke="#000000" stroke-width="5" stroke-miterlimit="10" d="
		M844.51,253.38c1.33-1.57-10.99-11.96-1.26-1.36c-12.97-13.85-25.88-27.73-39.06-41.37c-5.271-5.45-10.5-10.93-15.7-16.44
		c-6-6.37,5.35-7.65,6.35-12.88c7.54,15.46,28.641,28.15,39.5,41.84c4.96,6.26,11.12,10.43,16.51,16.14
		C857.38,246.21,848.81,248.34,844.51,253.38z"/>
	<path fill-rule="evenodd" clip-rule="evenodd" fill="#FEFEFE" stroke="#000000" stroke-width="5" stroke-miterlimit="10" d="
		M878.72,212.99c-8.489,12.19-13.399,5.94-22.229-3.78c-7.74-8.52-16.23-16.31-24.41-24.4c-2.62-2.59-18.08-16.55-17.95-19.46
		c0.09-1.77,8.87-10,9.74-9.65c3.96,1.62,10.62,11.45,14.06,14.67c14.11,13.25,27.761,28.04,40.86,42.34
		C878.21,212.23,878.06,213.77,878.72,212.99z"/>
	<path fill-rule="evenodd" clip-rule="evenodd" fill="#FEFEFE" stroke="#000000" stroke-width="5" stroke-miterlimit="10" d="
		M169.81,146.01c-3.9,4.35-8.77,7.73-12.2,12.52c-3.66,5.13-19.75,25.24-25.66,26.74c-2.14,0.54-8.26-8.45-9.43-9.74
		c-2.61-2.87,5.83-8.78,6.12-9.06c11.07-10.91,22.62-25.45,35.1-34.56c-4.88,3.7,3.07,2.73,0.3-0.22
		C168.98,136.96,175.91,139.21,169.81,146.01z"/>
	<path fill-rule="evenodd" clip-rule="evenodd" fill="#FEFEFE" stroke="#000000" stroke-width="5" stroke-miterlimit="10" d="
		M891.66,184.35c-5.641-1.21-20.57-21.13-25.391-25.85c-4.869-4.78-9.22-10.1-13.819-15.13c-2.72-2.96,6.88-8.67,8.05-11.52
		c-1.66,4.05,4.57,5.23,0.24,0.27c9.439,10.38,19.14,20.42,28.95,30.45c-0.101-0.11,11.359,11.03,11.359,10.39
		C901.34,175.72,894.95,185.04,891.66,184.35z"/>
	<path fill-rule="evenodd" clip-rule="evenodd" stroke="#000000" stroke-width="5" stroke-miterlimit="10" d="M109.31,93.43
		C110.89,88.27,110.51,98.46,109.31,93.43L109.31,93.43z"/>
	<path fill-rule="evenodd" clip-rule="evenodd" stroke="#000000" stroke-width="5" stroke-miterlimit="10" d="M937.44,120.27
		c-4.801-0.59-5.341-0.83-4.23-0.86C934.55,119.8,935.96,120.09,937.44,120.27z"/>
	<path fill-rule="evenodd" clip-rule="evenodd" stroke="#000000" stroke-width="5" stroke-miterlimit="10" d="M940.44,120.07
		c-0.19,0.09-1.07,0.17-3,0.2C938.47,120.25,939.47,120.18,940.44,120.07z"/>
</g>
</svg>
